<svg xmlns="http://www.w3.org/2000/svg" class="iconLeft" viewBox="0 0 392 90"><g id="ef106b06-3475-456f-9e4d-e0fea9225790" fill="#1F321D"><path d="M5.60 5.42L5.63 6.41L5.63 6.41Q6.45 4.65 7.46 4.66L7.46 4.66L7.46 4.66Q8.47 4.67 8.36 6.88L8.36 6.88L8.36 6.88Q8.34 10.78 8.39 11.50L8.39 11.50L8.39 11.50Q8.44 12.22 9.02 12.74L9.02 12.74L10.12 11.56L10.05 11.33L10.05 11.33Q9.36 12.04 9.37 10.04L9.37 10.04L9.39 6.15L9.39 6.15Q9.42 4.08 8.57 3.68L8.57 3.68L8.57 3.68Q7.72 3.29 7.08 3.81L7.08 3.81L7.08 3.81Q6.45 4.33 6.17 4.66L6.17 4.66L6.17 4.66Q5.89 4.98 5.60 5.42L5.60 5.42ZM1.59 3.67L0.29 4.94L0.37 5.17L0.37 5.17Q1.00 4.62 1.01 6.49L1.01 6.49L1.01 6.49Q0.94 10.86 1.03 11.52L1.03 11.52L1.03 11.52Q1.12 12.19 1.70 12.71L1.70 12.71L2.76 11.67L2.76 11.42L2.76 11.42Q2.19 11.54 2.11 10.31L2.11 10.31L2.11 10.31Q2.03 9.07 2.11 6.28L2.11 6.28L2.11 6.28Q2.83 4.65 3.84 4.66L3.84 4.66L3.84 4.66Q4.85 4.67 4.76 6.61L4.76 6.61L4.76 6.61Q4.72 10.78 4.76 11.50L4.76 11.50L4.76 11.50Q4.81 12.22 5.39 12.74L5.39 12.74L6.50 11.56L6.43 11.33L6.43 11.33Q5.74 12.04 5.77 8.80L5.77 8.80L5.77 8.80Q5.80 5.56 5.67 4.88L5.67 4.88L5.67 4.88Q5.54 4.20 4.82 3.74L4.82 3.74L4.82 3.74Q4.09 3.29 3.46 3.81L3.46 3.81L3.46 3.81Q2.82 4.33 2.54 4.66L2.54 4.66L2.54 4.66Q2.26 4.98 2.08 5.29L2.08 5.29L2.08 5.29Q2.14 4.05 1.59 3.67L1.59 3.67ZM13.34 6.45L13.34 6.45Q12.19 7.21 11.71 7.77L11.71 7.77L11.71 7.77Q11.24 8.33 11.05 8.89L11.05 8.89L11.05 8.89Q10.86 9.46 10.98 10.32L10.98 10.32L10.98 10.32Q11.11 11.17 11.98 11.96L11.98 11.96L11.98 11.96Q12.84 12.75 13.36 12.75L13.36 12.75L13.36 12.75Q13.88 12.76 15.00 11.73L15.00 11.73L15.00 11.73Q15.43 11.34 15.82 10.82L15.82 10.82L15.82 10.82Q16.21 10.31 16.33 9.74L16.33 9.74L16.33 9.74Q16.44 9.17 16.27 8.50L16.27 8.50L16.27 8.50Q16.09 7.83 15.29 7.04L15.29 7.04L15.29 7.04Q14.48 6.25 13.34 6.45L13.34 6.45ZM12.97 7.26L12.97 7.26L12.97 7.26Q13.76 7.08 14.70 8.24L14.70 8.24L14.70 8.24Q15.63 9.41 15.44 10.23L15.44 10.23L15.44 10.23Q15.24 11.06 14.58 11.56L14.58 11.56L14.58 11.56Q13.92 12.05 13.19 11.45L13.19 11.45L13.19 11.45Q12.45 10.84 12.01 10.15L12.01 10.15L12.01 10.15Q11.57 9.46 11.88 8.45L11.88 8.45L11.88 8.45Q12.19 7.43 12.97 7.26ZM17.53 6.50L16.84 7.53L16.93 7.68L16.93 7.68Q17.34 7.38 20.15 7.45L20.15 7.45L20.15 7.45Q17.16 11.59 16.68 12.55L16.68 12.55L16.81 12.65L16.81 12.65Q17.63 12.50 19.14 12.68L19.14 12.68L19.14 12.68Q20.65 12.87 21.00 12.49L21.00 12.49L21.00 12.49Q21.34 12.11 21.51 11.31L21.51 11.31L21.51 11.31Q20.79 11.86 18.00 11.44L18.00 11.44L21.25 6.69L21.14 6.50L17.53 6.50ZM24.60 6.54L24.60 6.54L24.60 6.54Q23.58 6.56 22.73 7.23L22.73 7.23L22.73 7.23Q21.89 7.90 22.31 8.74L22.31 8.74L23.43 8.07L23.43 8.07Q23.21 6.90 24.63 7.03L24.63 7.03L24.63 7.03Q26.06 7.15 25.87 8.89L25.87 8.89L25.87 8.89Q24.77 8.39 23.89 8.61L23.89 8.61L23.89 8.61Q23.01 8.82 22.27 9.71L22.27 9.71L22.27 9.71Q21.68 10.58 21.90 11.18L21.90 11.18L21.90 11.18Q22.11 11.79 22.60 12.23L22.60 12.23L22.60 12.23Q23.08 12.67 23.68 12.71L23.68 12.71L23.68 12.71Q24.27 12.76 24.68 12.48L24.68 12.48L24.68 12.48Q25.09 12.20 25.89 11.49L25.89 11.49L25.89 11.49Q25.96 12.36 26.45 12.76L26.45 12.76L27.56 11.80L27.47 11.64L27.47 11.64Q26.91 12.10 26.84 10.58L26.84 10.58L26.85 8.14L26.85 8.14Q26.82 7.23 26.22 6.88L26.22 6.88L26.22 6.88Q25.61 6.53 24.60 6.54ZM25.57 9.84L25.57 9.84L25.85 9.47L25.85 11.08L25.85 11.08Q24.99 11.95 24.36 11.90L24.36 11.90L24.36 11.90Q23.74 11.85 23.32 11.48L23.32 11.48L23.32 11.48Q22.89 11.12 22.70 10.64L22.70 10.64L22.70 10.64Q22.51 10.17 22.78 9.71L22.78 9.71L22.78 9.71Q23.04 9.26 23.83 9.19L23.83 9.19L23.83 9.19Q24.62 9.11 25.57 9.84ZM29.12 6.46L27.90 7.35L28.02 7.52L28.02 7.52Q28.59 7.06 28.61 8.50L28.61 8.50L28.61 8.50Q28.54 11.46 28.63 11.91L28.63 11.91L28.63 11.91Q28.72 12.37 29.35 12.71L29.35 12.71L30.41 11.87L30.32 11.75L30.32 11.75Q29.78 11.96 29.68 11.08L29.68 11.08L29.68 11.08Q29.58 10.19 29.65 8.11L29.65 8.11L29.65 8.11Q30.67 6.60 31.49 8.12L31.49 8.12L32.36 7.42L32.36 7.42Q32.08 6.74 31.62 6.57L31.62 6.57L31.62 6.57Q31.17 6.39 30.73 6.58L30.73 6.58L30.73 6.58Q30.30 6.76 29.59 7.66L29.59 7.66L29.59 7.66Q29.65 6.82 29.12 6.46L29.12 6.46ZM34.38 3.96L33.52 4.63L33.52 4.63Q34.00 4.55 33.84 6.59L33.84 6.59L33.26 6.62L32.33 7.56L32.48 7.83L32.48 7.83Q32.92 7.33 33.76 7.41L33.76 7.41L33.76 7.41Q33.62 11.04 33.76 11.58L33.76 11.58L33.76 11.58Q33.89 12.11 34.47 12.68L34.47 12.68L34.47 12.68Q34.92 12.24 36.20 11.30L36.20 11.30L36.11 10.98L36.11 10.98Q34.82 11.88 34.71 10.99L34.71 10.99L34.71 10.99Q34.61 10.09 34.73 7.46L34.73 7.46L35.57 7.46L36.20 6.75L36.14 6.61L34.78 6.64L34.78 4.83L34.78 4.83Q34.71 4.25 34.38 3.96L34.38 3.96Z" transform="matrix(6.488490699369617,0,0,6.488490699369617,156.16143768628223,-7.793141500495821)"/></g><defs><linearGradient id="9fffe3ff-6b14-4982-878c-a0a394ab3839" x1="0%" x2="100%" y1="0%" y2="0%" gradientTransform="rotate(25)"><stop offset="0%" style="stop-color:#00eee1;stop-opacity:1"/><stop offset="100%" style="stop-color:#ffd233;stop-opacity:1"/></linearGradient></defs><g id="7a4e8489-8d7d-4b4b-89b7-ce7ac330c254" fill="url(#9fffe3ff-6b14-4982-878c-a0a394ab3839)" stroke="none" transform="matrix(3.1848257704448533,0,0,3.1848257704448533,-10.275168327706822,-28.844772873004146)"><path d="M39.439 37.342H11.181V9.083H39.44v28.259h-.001zm-25.967-2.29h23.676V11.375H13.472v23.677zM7.33 13.834h2.292v18.521H7.33zM40.743 13.953h2.292v18.521h-2.292zM3.32 13.834h2.291v18.521H3.32zM44.374 13.953h2.29v18.521h-2.29z"/><path d="M19.274 31.989c-2.085 0-3.781-1.793-3.781-3.993 0-2.202 1.696-3.995 3.781-3.995s3.784 1.793 3.784 3.995c0 2.2-1.699 3.993-3.784 3.993zm0-5.699c-.821 0-1.49.764-1.49 1.703s.669 1.702 1.49 1.702 1.493-.763 1.493-1.702-.672-1.703-1.493-1.703zM29.436 31.989c-2.086 0-3.78-1.793-3.78-3.993 0-2.202 1.694-3.995 3.78-3.995 2.085 0 3.783 1.793 3.783 3.995 0 2.2-1.698 3.993-3.783 3.993zm0-5.699c-.818 0-1.488.764-1.488 1.703s.67 1.702 1.488 1.702c.823 0 1.492-.763 1.492-1.702s-.669-1.703-1.492-1.703z"/><path d="M33.188 27.6h-2.292v-8.344l-7.838 2.076V27.6h-2.291v-8.031l12.421-3.292z"/><path d="M33.188 24.688h-2.292v-8.346l-7.838 2.079v6.267h-2.291v-8.032l12.421-3.289z"/></g></svg>